:SAMPLES-PER-SECOND 30
:FULLY-SPECIFIED
:DEGREES
780
root  61.4101 19.426 1.92859 -50.8588 -76.1536 128.64
RightUpLeg  -158.949 -27.2039 21.7915
RightLeg  108.315 -1.41981 4.82895
RightFoot  -31.1839 0.732355 5.39802
RightToes  3.49245e-010 0 -3.6325e-017
Spine  21.6602 -5.77611 20.3171
Spine1  -89.0077 -3.69168 -1.99108
HEad  -0.97783 17.2806 -3.56701
LeftShoulder1  -0.035645 8.36395 8.82288
LeftArm  -58.1328 -35.7589 2.10707
LeftForeArm  -22.692 -62.629 -24.6277
LeftHand  -0.0350397 9.37089 0.478955
RightShoulder  -3.67753 12.8122 -35.1559
RightArm  -59.5534 9.62875 29.1034
RightForeArm  -13.0327 71.3833 39.8905
RightHand  -1.43182 12.7567 -9.5372
LeftUpLeg  -155.421 5.51252 -6.95522
LeftLeg  96.6786 -1.09047 5.3433
LeftFoot  -14.1367 0.0663454 -0.726132
LeftToes  -5.36635e-011 -6.70219e-011 5.24975e-011
781
root  61.0579 18.9797 2.16343 -53.888 -76.7276 128.674
RightUpLeg  -156.734 -29.6139 20.6688
RightLeg  110.421 -1.76359 5.18471
RightFoot  -31.9235 0.977094 6.56981
RightToes  3.49245e-010 0 -3.6325e-017
Spine  22.7105 -6.9887 19.4877
Spine1  -87.1613 -4.10444 -0.920729
HEad  -0.960897 18.0538 -3.33054
LeftShoulder1  -0.0390736 8.2551 8.7247
LeftArm  -58.6507 -35.4921 2.12753
LeftForeArm  -22.1488 -63.0175 -25.0446
LeftHand  -0.0183448 8.34324 0.956817
RightShoulder  -3.83141 13.613 -34.9733
RightArm  -59.879 8.94377 29.1013
RightForeArm  -12.1502 71.6804 40.7128
RightHand  -1.49592 12.6226 -10.0137
LeftUpLeg  -154.094 5.90754 -5.60129
LeftLeg  99.809 -1.55365 6.12989
LeftFoot  -15.289 0.0733416 -0.533541
LeftToes  -5.36635e-011 -6.70219e-011 5.24975e-011
782
root  60.6493 18.7212 2.34613 -56.4118 -78.5373 130.148
RightUpLeg  -154.539 -30.2411 20.7503
RightLeg  111.476 -2.09328 5.70986
RightFoot  -33.1622 1.22057 7.50441
RightToes  3.49245e-010 0 -3.6325e-017
Spine  22.8133 -7.07586 19.1182
Spine1  -85.6905 -3.767 0.248742
HEad  -1.77135 18.4998 -3.93861
LeftShoulder1  -0.0650921 8.39953 8.12928
LeftArm  -59.2584 -35.5002 2.44769
LeftForeArm  -21.6267 -63.39 -25.4595
LeftHand  -0.0182823 9.58769 0.870193
RightShoulder  -3.85474 13.0316 -35.9843
RightArm  -59.8946 9.07374 30.3837
RightForeArm  -10.9852 72.0206 41.6744
RightHand  -1.43857 12.2764 -9.83007
LeftUpLeg  -154.069 7.04276 -3.98253
LeftLeg  102.082 -1.89928 6.47082
LeftFoot  -16.103 0.0881039 -0.212322
LeftToes  -5.36635e-011 -6.70219e-011 5.24975e-011
783
root  60.066 19.0668 2.49957 -55.5398 -78.0662 131.55
RightUpLeg  -154.311 -30.6123 20.9163
RightLeg  109.969 -2.13357 6.20457
RightFoot  -33.973 1.46767 8.47171
RightToes  3.49245e-010 0 -3.6325e-017
Spine  22.3378 -7.70213 18.9128
Spine1  -86.8511 -4.58193 -0.676335
HEad  -3.41628 18.1033 -4.17485
LeftShoulder1  -0.0315559 8.72982 8.98085
LeftArm  -59.4405 -35.3125 1.64855
LeftForeArm  -21.3726 -63.8366 -25.9961
LeftHand  -0.0346436 8.53112 0.431453
RightShoulder  -3.8062 13.252 -35.3299
RightArm  -59.9238 9.03974 29.8306
RightForeArm  -11.2387 71.8532 41.1557
RightHand  -1.33712 12.0488 -9.25448
LeftUpLeg  -153.968 6.0991 -4.31097
LeftLeg  101.682 -2.05417 7.29568
LeftFoot  -17.6411 0.0715872 -0.613202
LeftToes  -5.36635e-011 -6.70219e-011 5.24975e-011
784
root  59.6173 19.026 2.53607 -58.7887 -80.1243 134.931
RightUpLeg  -151.774 -29.8621 21.1949
RightLeg  110.039 -2.15576 6.2348
RightFoot  -35.6399 1.83886 9.66323
RightToes  3.49245e-010 0 -3.6325e-017
Spine  21.3829 -7.66732 18.1488
Spine1  -84.8064 -4.29246 0.295943
HEad  -3.87828 18.5288 -4.43075
LeftShoulder1  -0.0560876 9.0039 8.49244
LeftArm  -60.1129 -35.4021 3.52829
LeftForeArm  -21.8354 -63.6402 -25.7826
LeftHand  -0.0330416 8.6717 0.53654
RightShoulder  -4.10666 14.1371 -35.9427
RightArm  -60.539 7.68691 30.5762
RightForeArm  -8.64365 72.2665 42.2208
RightHand  -1.05539 10.6423 -8.03209
LeftUpLeg  -153.953 7.8514 -3.45735
LeftLeg  102.881 -2.03638 6.61
LeftFoot  -19.1292 -0.0415941 -2.26259
LeftToes  -5.36635e-011 -6.70219e-011 5.24975e-011
785
root  58.9416 19.6522 2.58197 -57.216 -79.6619 137.956
RightUpLeg  -152.544 -28.4409 22.2094
RightLeg  107.117 -1.76068 6.12338
RightFoot  -36.113 2.13065 10.7982
RightToes  3.49245e-010 0 -3.6325e-017
Spine  19.1657 -7.93958 18.2478
Spine1  -85.5529 -5.18947 -1.70341
HEad  -5.16647 19.1927 -4.41351
LeftShoulder1  -0.0359999 9.4539 8.96636
LeftArm  -61.2243 -35.8053 3.98008
LeftForeArm  -20.741 -63.6826 -25.7574
LeftHand  -0.0750185 9.01272 -0.805033
RightShoulder  -4.18375 14.0176 -36.5906
RightArm  -61.0399 7.22327 31.5179
RightForeArm  -9.25148 72.4417 42.9132
RightHand  -1.27165 11.988 -8.85523
LeftUpLeg  -154.703 7.03924 -5.04133
LeftLeg  101.004 -1.85898 6.90056
LeftFoot  -21.3131 -0.243258 -4.25818
LeftToes  -5.36635e-011 -6.70219e-011 5.24975e-011
786
root  58.6212 19.5363 2.62266 -69.0941 -81.4062 147.544
RightUpLeg  -148.688 -27.6328 21.3861
RightLeg  107.894 -1.56319 5.25236
RightFoot  -36.4822 2.42003 11.9427
RightToes  3.49245e-010 0 -3.6325e-017
Spine  18.1449 -7.9209 16.3945
Spine1  -81.7761 -5.35951 -1.47893
HEad  -5.5888 19.823 -4.37296
LeftShoulder1  -0.0276713 10.2191 9.19059
LeftArm  -60.6242 -36.0618 4.51005
LeftForeArm  -21.1006 -64.2509 -26.5134
LeftHand  -0.0427198 9.29719 0.236668
RightShoulder  -4.31123 14.4882 -36.6864
RightArm  -60.3435 6.73141 32.0975
RightForeArm  -11.862 72.3312 42.8412
RightHand  -1.63304 13.7361 -10.2987
LeftUpLeg  -153.067 9.73935 -5.24387
LeftLeg  102.901 -1.55091 4.70667
LeftFoot  -22.9231 -0.493306 -6.21361
LeftToes  -5.36635e-011 -6.70219e-011 5.24975e-011
787
root  57.9289 20.2493 2.53388 -66.0587 -80.282 149.025
RightUpLeg  -150.249 -25.46 22.4857
RightLeg  105.272 -0.529565 2.8749
RightFoot  -35.1906 2.55068 13.1663
RightToes  3.49245e-010 0 -3.6325e-017
Spine  15.5193 -8.62012 15.1817
Spine1  -82.9875 -6.34831 -2.91505
HEad  -6.57158 20.3947 -4.67544
LeftShoulder1  -0.0405479 10.9277 9.04565
LeftArm  -60.62 -36.6547 5.87013
LeftForeArm  -21.0654 -64.4643 -26.7969
LeftHand  -0.054079 9.43494 -0.0601361
RightShoulder  -4.41448 15.3088 -36.1273
RightArm  -59.987 6.07985 31.7232
RightForeArm  -13.0579 71.8591 41.3922
RightHand  -1.65275 13.3439 -10.6066
LeftUpLeg  -153.513 8.51439 -8.41819
LeftLeg  100.495 -1.09993 3.71265
LeftFoot  -24.5596 -0.671173 -7.07078
LeftToes  -5.36635e-011 -6.70219e-011 5.24975e-011
788
root  57.5318 20.5367 2.48866 -71.3997 -81.1664 153.008
RightUpLeg  -147.852 -25.5586 22.0386
RightLeg  105.655 -0.461019 2.54338
RightFoot  -32.9685 2.71037 15.3001
RightToes  3.49245e-010 0 -3.6325e-017
Spine  15.1137 -9.22551 13.5312
Spine1  -80.7272 -6.86974 -3.24279
HEad  -7.55815 21.1673 -5.47144
LeftShoulder1  -0.0692222 11.9186 8.71896
LeftArm  -60.5409 -37.6713 6.546
LeftForeArm  -21.0303 -64.5584 -26.9218
LeftHand  -0.0339528 9.08697 0.451635
RightShoulder  -4.45479 14.7622 -37.1361
RightArm  -60.1591 6.9631 32.7703
RightForeArm  -14.2824 70.8981 38.6148
RightHand  -1.43703 12.48 -9.71551
LeftUpLeg  -151.747 9.38846 -9.36913
LeftLeg  100.748 -0.871509 2.63253
LeftFoot  -24.5719 -0.697688 -7.2794
LeftToes  -5.36635e-011 -6.70219e-011 5.24975e-011
789
root  57.154 20.7151 2.53487 -86.0747 -82.6337 166.165
RightUpLeg  -145.863 -25.2931 21.3459
RightLeg  106.85 -0.807618 3.4379
RightFoot  -27.8672 2.4839 18.6508
RightToes  3.49245e-010 0 -3.6325e-017
Spine  14.1438 -8.87364 13.414
Spine1  -77.7227 -7.35954 -5.05829
HEad  -8.05496 22.0304 -4.86373
LeftShoulder1  -0.073154 12.1637 8.69888
LeftArm  -60.5486 -37.9405 7.42444
LeftForeArm  -21.2929 -64.0995 -26.3311
LeftHand  -0.047177 8.91979 0.0330647
RightShoulder  -4.61285 14.7703 -38.0628
RightArm  -60.4075 7.72125 33.2676
RightForeArm  -16.5802 69.7955 36.0094
RightHand  -1.36757 12.8445 -9.08885
LeftUpLeg  -150.635 11.817 -9.68153
LeftLeg  101.797 -0.501609 0.870958
LeftFoot  -24.8145 -0.747085 -7.57773
LeftToes  -5.36635e-011 -6.70219e-011 5.24975e-011
790
root  56.6065 21.2466 2.63909 -97.929 -82.6152 178.259
RightUpLeg  -147.288 -23.9793 21.3025
RightLeg  107.378 0.0589244 0.791541
RightFoot  -16.8531 0.973842 19.7407
RightToes  3.49245e-010 0 -3.6325e-017
Spine  13.586 -8.27861 12.9743
Spine1  -76.6568 -8.02549 -6.17417
HEad  -8.22801 22.5167 -4.83868
LeftShoulder1  -0.0990293 12.4226 8.39847
LeftArm  -60.5037 -38.3841 8.12602
LeftForeArm  -22.4101 -63.4787 -25.6241
LeftHand  -0.0446838 9.89202 0.240491
RightShoulder  -4.61814 14.9075 -37.8948
RightArm  -60.3019 9.00214 32.3077
RightForeArm  -19.073 68.5283 33.3958
RightHand  -1.49088 12.8966 -9.84172
LeftUpLeg  -149.214 12.7088 -10.9269
LeftLeg  101.229 -0.291914 0.048581
LeftFoot  -25.5545 -0.772429 -7.41955
LeftToes  -5.36635e-011 -6.70219e-011 5.24975e-011
791
root  55.9079 21.9597 2.95177 -117.31 -83.1832 -158.502
RightUpLeg  -152.691 -18.1365 25.5426
RightLeg  105.877 2.1243 -5.4973
RightFoot  -1.64619 -0.918282 10.983
RightToes  3.49245e-010 0 -3.6325e-017
Spine  11.5369 -6.2001 16.1006
Spine1  -76.8954 -8.30357 -8.11572
HEad  -9.02813 22.6798 -4.97925
LeftShoulder1  -0.11964 12.6784 8.17395
LeftArm  -60.3976 -37.9119 8.77871
LeftForeArm  -23.1343 -62.7784 -24.8351
LeftHand  -0.0364252 9.40811 0.409007
RightShoulder  -4.98695 14.9123 -40.0172
RightArm  -61.0906 9.41432 33.4892
RightForeArm  -19.1721 68.0568 32.4768
RightHand  -1.49257 12.8103 -9.89414
LeftUpLeg  -150.624 13.3661 -11.363
LeftLeg  99.5316 -0.437121 0.77534
LeftFoot  -26.4414 -0.828895 -7.43952
LeftToes  -5.36635e-011 -6.70219e-011 5.24975e-011
792
root  55.5274 22.2996 3.196 -136.025 -81.9612 -141.477
RightUpLeg  -154.156 -13.664 26.3532
RightLeg  104.164 1.94451 -5.25958
RightFoot  3.88191 -0.433785 3.04667
RightToes  3.49245e-010 0 -3.6325e-017
Spine  13.6809 -4.96878 16.4414
Spine1  -75.7981 -8.72605 -9.32525
HEad  -9.7962 22.8088 -4.28006
LeftShoulder1  -0.11614 12.1259 8.12983
LeftArm  -61.1188 -37.1892 9.80782
LeftForeArm  -23.4944 -62.1877 -24.1827
LeftHand  -0.0335948 9.20106 0.480515
RightShoulder  -5.64021 15.8698 -42.1922
RightArm  -62.7446 8.53071 34.1447
RightForeArm  -19.8553 67.4898 31.4675
RightHand  -1.44784 12.9193 -9.56823
LeftUpLeg  -148.625 15.339 -10.8904
LeftLeg  100.058 -0.604092 1.55227
LeftFoot  -26.9162 -0.924603 -7.93605
LeftToes  -5.36635e-011 -6.70219e-011 5.24975e-011
